REM GENRE "Progressive Rock"
REM DATE 1981
REM DISCID 51096207
REM COMMENT "ExactAudioCopy v0.95b4"
PERFORMER "Rush"
TITLE "Moving Pictures"
FILE "Rush - Moving Pictures.wav" WAVE
  TRACK 01 AUDIO
    TITLE "Tom Sawyer"
    PERFORMER "Rush"
    INDEX 01 00:00:00
  TRACK 02 AUDIO
    TITLE "Red Barchetta"
    PERFORMER "Rush"
    INDEX 01 04:33:67
  TRACK 03 AUDIO
    TITLE "YYZ"
    PERFORMER "Rush"
    INDEX 01 10:44:07
  TRACK 04 AUDIO
    TITLE "Limelight"
    PERFORMER "Rush"
    INDEX 01 15:10:12
  TRACK 05 AUDIO
    TITLE "The Camera Eye"
    PERFORMER "Rush"
    INDEX 01 19:29:62
  TRACK 06 AUDIO
    TITLE "Witch Hunt"
    PERFORMER "Rush"
    INDEX 00 30:28:70
    INDEX 01 30:31:00
  TRACK 07 AUDIO
    TITLE "Vital Signs"
    PERFORMER "Rush"
    INDEX 00 35:15:42
    INDEX 01 35:16:40
